<?xml version="1.0" encoding="UTF-8"?>
<svg version="1.1" viewBox="0 0 2000 2000" width="265" height="100" xmlns="http://www.w3.org/2000/svg">
<path transform="translate(1384,856)" d="m0 0h11l8 3 7 6 7 14 15 40 11 29 2 1 10-27 7-20 8-21 6-9 7-7 12-6 8-1 13 2 9 5 8 7 6 10 6 15 12 34 7 17 2 1 7-20 17-46 7-14 5-6 10-6 4-1h10l15 5 11 7 6 5 5 8 1 3v11l-7 21-8 19-18 44-12 29-16 39-5 12-8 11-8 7-8 3-11 1-9-1-10-6-8-8-8-16-12-31-7-20-3-10-3 3-9 24-14 38-6 11-7 8-9 6-14 2-13-2-9-6-8-9-11-25-14-34-32-78-11-28-2-7v-9l5-9 9-8 12-6z" fill="#1065FE"/>
<path transform="translate(227,859)" d="m0 0h15l14 3 12 5 10 7 4 5 2 1 2-7 6-8 10-5 5-1h27l8 2 6 3 5 6 3 7 1 6v173l-2 9-4 6-6 5-11 3h-23l-16-4-7-7-3-8-4 2-11 9-12 5-14 3h-21l-16-4-12-5-12-8-13-11-12-13-7-10-8-15-6-18-2-10-1-11v-10l2-18 5-17 8-16 12-17 15-15 14-10 17-8 11-3zm11 73-11 4-10 9-6 9-3 9v13l5 12 9 10 8 5 8 2h13l10-3 8-6 7-8 4-9 1-12-2-11-5-9-8-9-8-4-7-2z" fill="#1064FE"/>
<path transform="translate(1218,854)" d="m0 0h17l19 2 17 5 16 8 10 8 11 11 9 14 5 11 3 10 2 10v21l-4 14-6 10-8 8-12 6-6 1-105 1 4 9 5 6 12 7 9 3h36l15-4 15-5h10l8 4 7 8 7 14 2 6v12l-5 10-7 7-10 5-12 4-15 3-22 2h-30l-17-2-19-5-16-7-11-7-11-9-8-9-10-15-8-17-5-16-2-10v-38l5-21 7-16 7-11 8-10 11-11 16-11 16-8 21-6zm4 66-12 4-11 7-8 8-5 10-1 6 33 1h16l13-2 5-4 2-4v-9l-4-8-6-5-8-3-6-1z" fill="#1065FE"/>
<path transform="translate(704,854)" d="m0 0h27l20 4 15 6 11 6 14 10 19 19 9 14 7 15 5 19 1 8v28l-4 20-6 15-8 14-10 13-13 13-15 10-12 6-18 6-14 3-10 1h-11l-19-3-17-5-16-8-11-7-13-11-11-13-9-13-7-15-4-13-3-19v-15l3-21 6-18 7-14 14-18 12-11 16-11 16-8 16-5zm4 74-13 5-9 7-6 8-4 13v16l3 10 6 9 7 6 12 6 15 2 12-3 11-6 7-6 6-9 2-8v-20l-3-9-6-9-11-8-11-4z" fill="#1065FE"/>
<path transform="translate(883,859)" d="m0 0h27l9 2 6 4 4 5 3 7 2 6 12-12 13-8 14-4h22l15 3 15 6 15 10 12 11 11 15 9 17 5 16 3 17v106l-6 12-4 3-13 4-17 1-14-2-10-4-6-7-2-4-1-7-1-89-2-11-4-9-7-8-8-4-8-2h-14l-11 4-7 5h-2l-2 4-4 7-2 6-1 7-1 89-2 9-6 9-5 3-11 3-17 1-14-2-9-4-5-5-4-10v-181l5-10 7-6 5-2z" fill="#1064FE"/>
<path transform="translate(1759,855)" d="m0 0h36l17 3 17 5 17 8 8 7 2 4v9l-5 13-7 11-8 8-9 2-11-3-16-6-16-3h-13l-9 2-6 4 1 8 5 4 10 4 31 6 20 6 17 8 10 8 7 10 5 11 2 6 2 17-1 17-3 14-4 9-6 10-9 9-16 8-21 6-19 3-13 1h-14l-21-3-15-4-15-6-19-10-7-8-2-10 4-13 7-12 7-9 7-5h11l12 4 22 11 13 4h21l7-2 4-4v-5l-6-4-16-4-26-6-17-7-16-9-9-8-7-10-5-11-3-9-2-10-1-17 4-20 7-14 9-10 11-7 11-5 15-4z" fill="#1165FE"/>
<path transform="translate(487,856)" d="m0 0h21l17 3 16 5 14 7 17 12 7 9 1 3v13l-5 12-8 12-7 8-11 7-9 1-11-4-12-7-8-4h-20l-10 4-10 8-5 8-3 10v14l5 13 4 5 10 7 11 4h11l15-5 14-8 2-1h14l9 6 10 9 9 12 5 10v13l-5 9-5 6-10 7-16 9-10 4-12 3-16 2h-15l-19-3-18-6-19-10-12-9-16-16-9-14-7-15-4-14-3-17v-20l5-25 7-16 6-10 9-12 11-11 16-11 17-9 15-5z" fill="#1065FE"/>
</svg>
